<svg xmlns="http://www.w3.org/2000/svg" viewBox="0 0 1213 142.74" fill="#333333">
    <title>Ресурс 1</title>
    <g id="Слой_2" data-name="Слой 2">
        <g id="Слой_1-2" data-name="Слой 1">
            <path d="M325.36,74c0,10.33-.14,20.66,0,31,.25,14.4-7.59,25.89-20.77,32-9.78,4.56-20.12,4.14-30.3,5a168.32,168.32,0,0,1-48.18-2.73c-3.85-.77-7.53-2.42-11.27-3.73-8.17-2.88-12.06-9.25-13.05-17.31a261.36,261.36,0,0,1-2.44-29.8c-.14-19.45-.3-39,1.05-58.36,1.3-18.56,11.89-23.72,28-27.09,20.59-4.3,41.33-3.35,61.94-1,7.51.83,15.14,3.88,21.87,7.48C320.81,14,324.09,22.81,324.43,32c.53,14,.14,28,.14,41.93Zm-46.64-1.7h-.08c0-11.48.11-23-.05-34.43-.08-5.8-3-11-6.9-11.44-5.38-.64-11-1.09-16.28-.35-4.06.57-9,2.39-9,7.77q-.36,36.37-.07,72.77a11.81,11.81,0,0,0,3.06,7c5.2,5.79,21.05,5.9,26.19.13a12.86,12.86,0,0,0,3-7.58C278.91,94.88,278.72,83.57,278.72,72.27Z"/>
            <path d="M601.41,118.65c3.29-6,6.56-11.76,9.65-17.63,1.48-2.83,2.63-3.69,6.08-2,15.12,7.63,30.49,14.78,47.5,17.22a44.64,44.64,0,0,0,10.39.36c10.66-1,11.32-7.41,9.27-15.59-.43-1.72-2.95-3.63-4.87-4.15-13.09-3.57-26.5-6.13-39.4-10.29-16.85-5.43-30-15.47-32.91-34.36-1.85-12-1.33-23.83,7.09-33.94a13.44,13.44,0,0,0,2.49-6.66c.42-3.26.11-6.62.11-10.54,2.79-.16,5.36-.43,7.94-.44,16,0,32-.09,48,0C693.44.81,711,8.9,727,22.15L715.44,44.42c-9.26-4.15-18.05-9-27.45-12-8.74-2.77-18.08-4-27.25-4.86-3.11-.3-7.27,1.82-9.62,4.16-3.54,3.52-1.17,11,4.48,13,6.81,2.38,14.24,2.89,21.2,4.92,13.32,3.89,27.14,6.92,39.57,12.81,15.06,7.15,18.39,21.73,17.09,37.29-1.65,19.79-13.72,33.78-33.31,39.35s-38.95,4.39-58.24-.47C619.79,133,616.12,130.1,601.41,118.65Z"/>
            <path d="M981.69,141.11c-16,0-31.48.1-47-.17-1.46,0-3.32-2.09-4.21-3.66-1-1.81-1.18-4.11-1.7-6.21-1.86-7.41-1.86-7.37-9.65-7.41-9.33-.06-18.65-.12-28-.33-2.6-.06-4.11.73-4.53,3.39-.32,2-.82,3.9-1.19,5.86-1.84,9.65-.45,8.45-10.25,8.56-6.83.08-13.67,0-20.5,0-1.59,0-3.18-.22-5.47-.39,2.93-11.7,5.67-22.77,8.5-33.83q10.41-40.71,20.9-81.42c1.09-4.22-.58-5.7-5.15-4.07V2.1h73.34C958.4,48.19,970,94.41,981.69,141.11Zm-60-42.51L908.12,46.1,906,46c-4.08,17.39-8.16,34.77-12.34,52.6Z"/>
            <path d="M341,2h52.21c0,2.13,0,4.09,0,6.05.33,27.64.54,55.28,1.1,82.92a120.21,120.21,0,0,0,2.41,19.7,8.58,8.58,0,0,0,4.21,5.55c9.85,4.23,19.75,3.78,29.33-1.16,5.84-3,7-8.47,7.15-14.33q1-43.42,2-86.83c.09-3.82,0-7.63,0-11.85h27.5V7.51c0,29.66-.67,59.33.21,89,.68,22.82-14.63,41.07-38.42,44.11-10.18,1.3-20.55,2.39-30.75,1.89-15.19-.75-29.37-5.28-40.58-16.48a31,31,0,0,1-9.49-21.83c-.45-26.13-.49-52.27-.58-78.41,0-2.61,0-4.47-3.32-4.93a4.34,4.34,0,0,1-2.86-3.06C340.84,12.64,341,7.48,341,2Z"/>
            <path d="M1213,1.93c0,8.09-.08,15.58,0,23.06,0,3.84-2.47,3.67-5,3.67h-52.52V47.59c0,12.34,0,12.33,12.36,12.34q8,0,16,.1c.82,0,1.65.15,3.5.32,0,7.37.16,14.78-.19,22.17,0,.94-2.74,2.47-4.24,2.51-8.81.24-17.62.12-27,.12-.16,2-.43,3.75-.43,5.48,0,15-.12,30,0,45,0,4.23-1.18,5.77-5.69,5.66-13.14-.31-26.29-.11-40-.11a47.25,47.25,0,0,1-.7-5.74Q1109,82.21,1109,29a6.25,6.25,0,0,1,0-1.5c1.26-5.07-.48-7.65-6.25-6.86V1.93Z"/>
            <path d="M1071.34,59.86c0,7.5,0,14.45,0,21.41,0,3-1.37,4-4.32,3.93-7.65-.24-15.31-.11-23-.42-3.68-.15-4.9.9-4.84,4.79.27,15.32.08,30.64.24,46,0,4.14-1.15,5.86-5.7,5.74-12-.32-24-.24-36,0-3.74.07-4.83-1.12-4.81-4.83.21-37.3.2-74.6.43-111.9,0-5-3.45-3.21-6.33-3.83V2.08h109.41V28.66c-6.72,0-13,0-19.32,0-11.16,0-22.32,0-33.47-.21-3.33-.06-4.77.63-4.59,4.43.39,7.81.33,15.65.19,23.47,0,2.82.53,3.71,3.59,3.62C1052.05,59.69,1061.21,59.86,1071.34,59.86Z"/>
            <path d="M769,141.16v-19l6.25-.94V28.74h-36v-27H858.43V28.89H822.55v5q0,50,0,100c0,7.33,0,7.33-7.56,7.34Z"/>
            <path d="M506.65,122.07l7.65-.77c.09-1.77.25-3.4.25-5,.07-27.83.07-55.66.25-83.49,0-4.14-2.27-4-5.16-4-10.48.07-21,0-31.83,0V1.25h5.13c36.17,0,72.34.08,108.5-.09,4.75,0,6.57,1.21,6.22,6.13-.41,5.81-.19,11.66-.11,17.5.05,3.09-1,4.5-4.36,4.42-9.49-.22-19-.06-28.48-.33-3.06-.08-4.1.68-4.08,3.87.17,34.82.18,69.65.34,104.48,0,3.12-1.15,4-4.11,4q-23-.15-46,0c-3,0-4.26-1.13-4.23-4C506.69,132.21,506.65,127.24,506.65,122.07Z"/>
            <path d="M0,102l23.09-23.2c7.06,5.83,13.2,10.8,19.2,15.93,2.85,2.44,5.49,3.39,8.93,1a15.05,15.05,0,0,1,6.37-2.74c5.72-.74,7-4.18,7.21-9.28.21-6.31,1.09-12.6,1.61-18.9.21-2.52,1.26-4,3.94-4h29.9c.86,9.52,1.54,18.28,2.53,27a5.72,5.72,0,0,0,2.71,3.81,91.52,91.52,0,0,0,12.89,5.32,6.45,6.45,0,0,0,5.11-1.19C130,90.47,136.18,85,142.76,79.43A85.77,85.77,0,0,1,165,101.12c.7,1,0,3.76-1,5-4.25,5.51-8.8,10.79-13.32,16.09-2.08,2.43-2.5,4.58-.72,7.6,2,3.37,3.12,7.22,5.12,12-6,0-10.92,0-15.86,0-8.32,0-16.64,0-25-.21a7.61,7.61,0,0,1-5-2.22c-14.87-17.35-37.13-17.48-52.17-.26-1,1.2-2.83,2.5-4.28,2.52-13.31.2-26.62.12-40.84.12,1.88-4.76,3.81-8.72,4.93-12.89a8.66,8.66,0,0,0-.9-6.51C11.17,115.73,5.88,109.39,0,102Z"/>
            <path d="M83.76.42C99.1.6,108.1,13,107.76,25.5c-.38,14.16-12,25.34-24.72,25-13.19-.39-25.19-13-24.64-25.9C59,10.93,70.61-.16,83.76.42Z"/>
        </g>
    </g>
</svg>