<?xml version="1.0" encoding="UTF-8"?>
<!DOCTYPE svg PUBLIC "-//W3C//DTD SVG 1.1//EN" "http://www.w3.org/Graphics/SVG/1.1/DTD/svg11.dtd">
<!-- Creator: CorelDRAW X6 -->
<svg xmlns="http://www.w3.org/2000/svg" xml:space="preserve" width="920px" height="257px" version="1.1" style="shape-rendering:geometricPrecision; text-rendering:geometricPrecision; image-rendering:optimizeQuality; fill-rule:evenodd; clip-rule:evenodd"
viewBox="0 0 92000 25743"
 xmlns:xlink="http://www.w3.org/1999/xlink">
 <defs>
  <style type="text/css">
   <![CDATA[
    .fil2 {fill:#C32328;fill-rule:nonzero}
    .fil1 {fill:#FEFEFE;fill-rule:nonzero}
    .fil0 {fill:url(#id0)}
   ]]>
  </style>
  <radialGradient id="id0" gradientUnits="objectBoundingBox" cx="50%" cy="50%" r="50%" fx="50%" fy="50%">
   <stop offset="0" style="stop-color:#D67E29"/>
   <stop offset="0.0313725" style="stop-color:#D67E29"/>
   <stop offset="0.109804" style="stop-color:#D67E29"/>
   <stop offset="0.25098" style="stop-color:#D06929"/>
   <stop offset="0.541176" style="stop-color:#C32328"/>
   <stop offset="1" style="stop-color:#C32328"/>
  </radialGradient>
 </defs>
 <g id="Слой_x0020_1">
  <metadata id="CorelCorpID_0Corel-Layer"/>
  <path class="fil0" d="M19577 6527l-5116 1416c231,498 374,1024 430,1556l5115 -1417c-102,-534 -246,-1054 -429,-1555zm-1585 9673l-2328 410 -735 2188c-585,328 -1205,600 -1852,811l-3400 -9961 9391 4915c-308,580 -668,1128 -1076,1637zm-6118 -16200l-1385 5124c535,54 1062,194 1558,420l1385 -5124c-503,-179 -1023,-321 -1558,-420zm-3915 14486l-1384 5124c502,179 1022,321 1557,420l1385 -5124c-535,-53 -1062,-194 -1558,-420zm-4497 -12280l3719 3785c-132,93 -260,192 -384,299 -293,252 -549,532 -768,832l-3718 -3785c353,-407 738,-784 1151,-1131zm1654 8325l-5116 1417c103,534 247,1054 429,1555l5116 -1416c-231,-498 -374,-1024 -429,-1556z"/>
  <path class="fil1" d="M27353 19332l-1655 5468c-131,436 -236,689 -314,759 -79,70 -290,105 -636,105l-617 0 -1543 -5135 -1272 4271c-132,436 -241,689 -327,759 -87,70 -348,105 -784,105l-457 0 -1925 -6332c576,0 919,35 1030,104 111,70 229,319 352,747l1210 4321 1555 -5172c650,0 1037,35 1161,104 123,70 251,319 382,747l1296 4321 1210 -4321c115,-428 231,-677 346,-747 115,-69 444,-104 988,-104zm5097 6332l-3320 0c-535,0 -848,-37 -938,-111 -91,-74 -136,-337 -136,-790l0 -4518c0,-453 45,-716 136,-790 90,-74 403,-111 938,-111l2432 0c444,0 703,37 777,111 74,74 111,337 111,790l-3320 0 0 1753 2136 0c436,0 691,37 765,111 74,74 111,329 111,765l-3012 0 0 1889 2358 0c485,0 767,37 845,111 78,74 117,337 117,790zm6037 -1839c0,1234 -839,1852 -2518,1852l-1482 0c-510,0 -808,-37 -894,-112 -87,-74 -130,-333 -130,-777l0 -4543c0,-453 43,-716 130,-790 86,-74 384,-111 894,-111l1445 0c1572,0 2358,551 2358,1654 0,741 -280,1177 -840,1308 321,91 580,288 778,593 173,271 259,580 259,926zm-1259 -2679c0,-601 -420,-901 -1259,-901l-1420 0 0 1790 1481 0c601,0 951,-37 1050,-111 99,-74 148,-333 148,-778zm148 2666c0,-625 -448,-938 -1346,-938l-1481 0 0 1914 1457 0c683,0 1082,-41 1197,-124 115,-82 173,-366 173,-852zm4728 -1135c0,436 -31,691 -93,765 -61,74 -277,111 -648,111l-2160 0c0,-436 29,-691 86,-765 58,-74 255,-111 593,-111l2222 0zm8542 2987c-543,0 -860,-37 -950,-111 -91,-74 -136,-325 -136,-753l0 -4148 -1815 4296c-148,354 -257,562 -327,624 -70,61 -245,92 -524,92l-544 0 -2123 -5012 0 5012c-535,0 -847,-37 -938,-111 -90,-74 -136,-325 -136,-753l0 -5468 593 0c502,0 806,33 913,98 107,66 247,301 420,704l1518 3580c50,115 149,387 297,814 74,-213 172,-485 296,-814l1531 -3580c173,-403 306,-638 401,-704 94,-65 360,-98 796,-98l728 0 0 6332zm6913 0c-568,0 -909,-26 -1024,-80 -116,-53 -235,-249 -358,-586l-210 -568 -3099 0 -197 568c-115,329 -233,522 -352,580 -119,57 -463,86 -1031,86l2099 -5616c131,-354 243,-562 333,-624 91,-62 321,-92 692,-92l715 0 2432 6332zm-1864 -2024l-1283 -3592 -1272 3592 2555 0zm7000 172c0,527 -177,951 -531,1272 -436,395 -1111,593 -2025,593l-2123 0c0,-470 37,-743 111,-821 74,-79 325,-118 753,-118l1235 0c782,0 1230,-28 1345,-86 115,-58 173,-305 173,-741 0,-419 -329,-720 -988,-901 -609,-148 -1217,-300 -1826,-457 -667,-263 -1005,-712 -1013,-1345 -24,-1251 819,-1876 2531,-1876l2135 0c0,452 -34,718 -104,796 -70,78 -315,117 -735,117l-1333 0c-724,0 -1142,33 -1253,99 -111,65 -167,337 -167,814 0,338 329,585 988,741 1103,264 1716,424 1839,482 659,296 988,773 988,1431zm4801 -4468c0,452 -35,716 -105,790 -69,74 -322,111 -759,111l-950 0 0 5419c-527,0 -835,-37 -926,-111 -91,-74 -136,-329 -136,-765l0 -4543 -1814 0c0,-453 33,-716 98,-790 66,-74 297,-111 692,-111l3900 0zm5148 6320l-3321 0c-535,0 -847,-37 -938,-111 -90,-74 -135,-337 -135,-790l0 -4518c0,-453 45,-716 135,-790 91,-74 403,-111 938,-111l2432 0c444,0 704,37 778,111 74,74 111,337 111,790l-3321 0 0 1753 2136 0c436,0 691,37 765,111 74,74 111,329 111,765l-3012 0 0 1889 2358 0c485,0 768,37 846,111 78,74 117,337 117,790zm6110 0c-781,0 -1242,-20 -1382,-61 -206,-58 -465,-264 -778,-618l-1642 -1864c-82,-90 -123,-197 -123,-321 0,-255 127,-382 383,-382l765 0c732,0 1158,-48 1278,-142 119,-95 179,-418 179,-969 0,-716 -494,-1074 -1482,-1074l-1209 0 0 5431c-544,0 -860,-37 -951,-111 -91,-74 -136,-337 -136,-790l0 -4530c0,-445 45,-704 136,-778 91,-74 407,-111 951,-111l1160 0c1753,0 2629,654 2629,1963 0,1283 -778,1925 -2333,1925l2555 2432zm1963 -555c0,420 -251,629 -753,629 -510,0 -765,-209 -765,-629 0,-428 255,-642 765,-642 502,0 753,214 753,642z"/>
  <path class="fil2" d="M87037 25743c-732,0 -1176,-25 -1333,-74 -181,-50 -419,-243 -716,-580l-2061 -2296c-82,-91 -124,-194 -124,-309 0,-123 42,-230 124,-321l2481 -2740 1469 0 -3000 3012 3160 3308zm-4332 0c-543,0 -860,-37 -951,-111 -90,-74 -136,-338 -136,-790l0 -5419c544,0 860,32 951,98 90,66 136,301 136,704l0 5518zm9295 0l-4814 0c0,-510 16,-831 49,-963 25,-107 111,-255 259,-444l3161 -4012 -2655 0c-403,0 -639,-39 -709,-118 -70,-78 -105,-343 -105,-796l4691 0c0,494 -13,805 -38,932 -24,128 -107,278 -246,451l-3296 4086 2814 0c445,0 704,35 778,105 74,70 111,323 111,759z"/>
  <path class="fil1" d="M37953 15249l0 -1826 1275 0c909,0 1440,-634 1440,-1385 0,-751 -517,-1385 -1440,-1385l-1847 0 0 4596 572 0zm1206 -2335l-1206 0 0 -1751 1206 0c544,0 916,359 916,875 0,517 -372,876 -916,876zm4844 2335l0 -2287c0,-806 -586,-1123 -1289,-1123 -544,0 -971,179 -1330,551l241 358c297,-317 620,-461 1020,-461 483,0 841,254 841,702l0 600c-269,-310 -648,-455 -1103,-455 -565,0 -1164,351 -1164,1096 0,723 599,1102 1164,1102 448,0 827,-159 1103,-462l0 379 517 0zm-1434 -289c-482,0 -820,-303 -820,-724 0,-427 338,-730 820,-730 366,0 717,138 917,413l0 627c-200,276 -551,414 -917,414zm3645 372c958,0 1523,-413 1523,-972 0,-551 -579,-785 -965,-813 393,-48 896,-316 896,-813 0,-565 -634,-895 -1529,-888 -607,0 -1055,213 -1365,530l269 317c283,-289 648,-427 1116,-427 551,0 972,213 972,530 0,379 -434,558 -986,558l-744 0 0 421 744 0c586,0 1048,138 1048,551 0,351 -386,579 -979,579 -496,0 -937,-152 -1247,-448l-255 331c331,330 834,544 1502,544zm4004 0c875,0 1481,-675 1481,-1750 0,-1082 -606,-1743 -1481,-1743 -469,0 -882,241 -1124,578l0 -496 -516 0 0 4596 516 0 0 -1771c269,372 669,586 1124,586zm-131 -462c-407,0 -813,-248 -993,-537l0 -1502c180,-290 586,-531 993,-531 668,0 1068,545 1068,1282 0,737 -400,1288 -1068,1288zm5030 379l0 -2287c0,-806 -586,-1123 -1289,-1123 -544,0 -971,179 -1330,551l241 358c297,-317 620,-461 1020,-461 483,0 841,254 841,702l0 600c-269,-310 -648,-455 -1103,-455 -565,0 -1164,351 -1164,1096 0,723 599,1102 1164,1102 448,0 827,-159 1103,-462l0 379 517 0zm-1434 -289c-482,0 -820,-303 -820,-724 0,-427 338,-730 820,-730 366,0 717,138 917,413l0 627c-200,276 -551,414 -917,414zm3921 -90c-710,0 -1109,-606 -1109,-1295 0,-668 399,-1275 1109,-1275 710,0 1102,607 1102,1275 0,689 -392,1295 -1102,1295zm0 462c1027,0 1640,-799 1640,-1757 0,-944 -613,-1736 -1557,-1736 -593,0 -1013,330 -1254,709 117,-565 413,-992 1398,-1130 565,-76 1309,-220 1309,-765l-503 0c0,138 -206,228 -937,338 -1157,152 -1743,820 -1743,2439 0,1103 627,1902 1647,1902zm3976 0c1012,0 1646,-786 1646,-1750 0,-965 -634,-1743 -1646,-1743 -1013,0 -1647,778 -1647,1743 0,964 634,1750 1647,1750zm0 -462c-710,0 -1110,-606 -1110,-1288 0,-675 400,-1282 1110,-1282 709,0 1102,607 1102,1282 0,682 -393,1288 -1102,1288zm3610 379l0 -2873 972 0 0 -455 -2453 0 0 455 964 0 0 2873 517 0zm4575 0l-1481 -1819 1474 -1509 -654 0 -1750 1771 0 -1771 -517 0 0 3328 517 0 0 -951 551 -544 1199 1495 661 0zm3211 0l0 -2287c0,-806 -586,-1123 -1288,-1123 -545,0 -972,179 -1330,551l241 358c296,-317 620,-461 1020,-461 482,0 840,254 840,702l0 600c-268,-310 -647,-455 -1102,-455 -565,0 -1165,351 -1165,1096 0,723 600,1102 1165,1102 448,0 827,-159 1102,-462l0 379 517 0zm-1433 -289c-482,0 -820,-303 -820,-724 0,-427 338,-730 820,-730 365,0 716,138 916,413l0 627c-200,276 -551,414 -916,414zm5712 372c606,0 965,-248 1220,-579l-345 -317c-221,297 -503,434 -848,434 -709,0 -1150,-551 -1150,-1288 0,-737 441,-1282 1150,-1282 345,0 627,131 848,434l345 -317c-255,-330 -614,-578 -1220,-578 -992,0 -1661,758 -1661,1743 0,992 669,1750 1661,1750zm4541 -83l0 -2287c0,-806 -586,-1123 -1289,-1123 -544,0 -971,179 -1330,551l241 358c297,-317 620,-461 1020,-461 482,0 841,254 841,702l0 600c-269,-310 -648,-455 -1103,-455 -565,0 -1164,351 -1164,1096 0,723 599,1102 1164,1102 448,0 827,-159 1103,-462l0 379 517 0zm-1434 -289c-482,0 -820,-303 -820,-724 0,-427 338,-730 820,-730 366,0 717,138 917,413l0 627c-200,276 -551,414 -917,414zm2963 289l1757 -2590 0 2590 517 0 0 -3328 -510 0 -1743 2543 0 -2543 -517 0 0 3328 496 0zm2095 -4313l-255 -220c-214,310 -551,496 -951,496 -406,0 -737,-193 -958,-496l-255 220c283,372 724,606 1213,606 496,0 930,-234 1206,-606zm2336 4313l0 -2873 971 0 0 -455 -2453 0 0 455 965 0 0 2873 517 0zm4244 0l0 -2287c0,-806 -586,-1123 -1289,-1123 -544,0 -971,179 -1329,551l241 358c296,-317 620,-461 1020,-461 482,0 840,254 840,702l0 600c-269,-310 -648,-455 -1102,-455 -565,0 -1165,351 -1165,1096 0,723 600,1102 1165,1102 448,0 827,-159 1102,-462l0 379 517 0zm-1433 -289c-483,0 -820,-303 -820,-724 0,-427 337,-730 820,-730 365,0 716,138 916,413l0 627c-200,276 -551,414 -916,414z"/>
 </g>
</svg>
