<svg xmlns="http://www.w3.org/2000/svg" viewBox="0 0 528 527.92" fill="#f7444e">

    <title>Ресурс 1</title>
    <g id="Слой_2" data-name="Слой 2">
        <g id="Слой_1-2" data-name="Слой 1">
            <path class="cls-1"
                  d="M0,232V9C3.54,1.79,9.39,0,17.14,0c68.8.23,137.61.13,206.41.14C235.44.14,239,3.72,239,15.64V225.55c0,11.85-3.53,15.32-15.58,15.32-69,0-137.94-.1-206.91.13C8.87,241,3.31,239,0,232Z"/>
            <path class="cls-1"
                  d="M528,10V232c-3.34,7-8.84,9.07-16.52,9-69.28-.23-138.57-.13-207.85-.14-10.88,0-14.66-3.78-14.66-14.72q0-105.67,0-211.35C289,4,292.91.13,303.77.13c69.45,0,138.9.08,208.35-.11C520,0,525.29,2.51,528,10Z"/>
            <path class="cls-1"
                  d="M0,519V296c3.28-7.08,8.84-9.07,16.51-9,69.13.23,138.27.14,207.41.14,11.53,0,15.1,3.61,15.1,15.28q0,105.21,0,210.42c0,11.21-3.82,15-15,15-69,0-137.95-.09-206.92.13C9.42,527.94,3.54,526.13,0,519Z"/>
            <path class="cls-1"
                  d="M528,296V518c-2.72,7.44-8.06,10-15.89,9.94-69.45-.19-138.91-.11-208.36-.12-10.8,0-14.78-3.93-14.78-14.69q0-105.68,0-211.35c0-10.95,3.75-14.69,14.67-14.69,69.29,0,138.57.1,207.86-.14C519.17,286.88,524.69,289,528,296Z"/>
        </g>
    </g>
</svg>